<svg width="55" height="22" viewBox="0 0 55 22" fill="none" xmlns="http://www.w3.org/2000/svg">
<rect width="47" height="22" transform="translate(4)" fill="url(#paint0_linear_170_101)"/>
<path d="M18.9668 10.1426V11.4727H12.8848V10.1426H18.9668ZM21.9841 11.1152L20.6365 10.793L21.1228 6.46875H25.9158V7.83398H22.5115L22.3005 9.72656C22.4138 9.66016 22.5857 9.58984 22.8162 9.51562C23.0466 9.4375 23.3045 9.39844 23.5896 9.39844C24.0037 9.39844 24.3709 9.46289 24.6912 9.5918C25.0115 9.7207 25.283 9.9082 25.5056 10.1543C25.7322 10.4004 25.9041 10.7012 26.0212 11.0566C26.1384 11.4121 26.197 11.8145 26.197 12.2637C26.197 12.6426 26.1384 13.0039 26.0212 13.3477C25.9041 13.6875 25.7263 13.9922 25.488 14.2617C25.2498 14.5273 24.9509 14.7363 24.5916 14.8887C24.2322 15.041 23.8064 15.1172 23.3142 15.1172C22.947 15.1172 22.5916 15.0625 22.2478 14.9531C21.908 14.8438 21.6013 14.6816 21.3279 14.4668C21.0584 14.252 20.8416 13.9922 20.6775 13.6875C20.5173 13.3789 20.4334 13.0273 20.4255 12.6328H22.1013C22.1248 12.875 22.1873 13.084 22.2888 13.2598C22.3943 13.4316 22.533 13.5645 22.7048 13.6582C22.8767 13.752 23.0779 13.7988 23.3084 13.7988C23.5232 13.7988 23.7068 13.7578 23.8591 13.6758C24.0115 13.5938 24.1345 13.4805 24.2283 13.3359C24.322 13.1875 24.3904 13.0156 24.4334 12.8203C24.4802 12.6211 24.5037 12.4062 24.5037 12.1758C24.5037 11.9453 24.4763 11.7363 24.4216 11.5488C24.367 11.3613 24.283 11.1992 24.1697 11.0625C24.0564 10.9258 23.9119 10.8203 23.7361 10.7461C23.5642 10.6719 23.363 10.6348 23.1326 10.6348C22.8201 10.6348 22.5779 10.6836 22.406 10.7812C22.238 10.8789 22.0974 10.9902 21.9841 11.1152ZM33.2691 9.98438V11.4609C33.2691 12.1016 33.2007 12.6543 33.064 13.1191C32.9273 13.5801 32.73 13.959 32.4722 14.2559C32.2183 14.5488 31.9155 14.7656 31.564 14.9062C31.2124 15.0469 30.8218 15.1172 30.3921 15.1172C30.0484 15.1172 29.728 15.0742 29.4312 14.9883C29.1343 14.8984 28.8667 14.7598 28.6284 14.5723C28.3941 14.3848 28.1909 14.1484 28.0191 13.8633C27.8511 13.5742 27.7222 13.2305 27.6323 12.832C27.5425 12.4336 27.4976 11.9766 27.4976 11.4609V9.98438C27.4976 9.34375 27.5659 8.79492 27.7027 8.33789C27.8433 7.87695 28.0405 7.5 28.2945 7.20703C28.5523 6.91406 28.857 6.69922 29.2085 6.5625C29.5601 6.42188 29.9507 6.35156 30.3804 6.35156C30.7241 6.35156 31.0425 6.39648 31.3355 6.48633C31.6323 6.57227 31.8999 6.70703 32.1382 6.89062C32.3765 7.07422 32.5796 7.31055 32.7476 7.59961C32.9155 7.88477 33.0445 8.22656 33.1343 8.625C33.2241 9.01953 33.2691 9.47266 33.2691 9.98438ZM31.5757 11.6836V9.75586C31.5757 9.44727 31.5581 9.17773 31.523 8.94727C31.4917 8.7168 31.4429 8.52148 31.3765 8.36133C31.3101 8.19727 31.228 8.06445 31.1304 7.96289C31.0327 7.86133 30.9214 7.78711 30.7964 7.74023C30.6714 7.69336 30.5327 7.66992 30.3804 7.66992C30.189 7.66992 30.0191 7.70703 29.8706 7.78125C29.7261 7.85547 29.603 7.97461 29.5015 8.13867C29.3999 8.29883 29.3218 8.51367 29.2671 8.7832C29.2163 9.04883 29.1909 9.37305 29.1909 9.75586V11.6836C29.1909 11.9922 29.2066 12.2637 29.2378 12.498C29.273 12.7324 29.3237 12.9336 29.3902 13.1016C29.4605 13.2656 29.5425 13.4004 29.6362 13.5059C29.7339 13.6074 29.8452 13.6816 29.9702 13.7285C30.0991 13.7754 30.2398 13.7988 30.3921 13.7988C30.5796 13.7988 30.7456 13.7617 30.8902 13.6875C31.0386 13.6094 31.1636 13.4883 31.2652 13.3242C31.3706 13.1562 31.4487 12.9375 31.4995 12.668C31.5503 12.3984 31.5757 12.0703 31.5757 11.6836ZM34.6341 8.56055V8.10938C34.6341 7.78516 34.7044 7.49023 34.845 7.22461C34.9856 6.95898 35.1927 6.74609 35.4661 6.58594C35.7395 6.42578 36.0755 6.3457 36.4739 6.3457C36.8841 6.3457 37.2259 6.42578 37.4993 6.58594C37.7766 6.74609 37.9837 6.95898 38.1204 7.22461C38.261 7.49023 38.3313 7.78516 38.3313 8.10938V8.56055C38.3313 8.87695 38.261 9.16797 38.1204 9.43359C37.9837 9.69922 37.7786 9.91211 37.5052 10.0723C37.2317 10.2324 36.8919 10.3125 36.4856 10.3125C36.0833 10.3125 35.7434 10.2324 35.4661 10.0723C35.1927 9.91211 34.9856 9.69922 34.845 9.43359C34.7044 9.16797 34.6341 8.87695 34.6341 8.56055ZM35.7532 8.10938V8.56055C35.7532 8.69727 35.7786 8.82812 35.8294 8.95312C35.8841 9.07422 35.9661 9.17383 36.0755 9.25195C36.1887 9.32617 36.3255 9.36328 36.4856 9.36328C36.6536 9.36328 36.7903 9.32617 36.8958 9.25195C37.0012 9.17383 37.0794 9.07422 37.1302 8.95312C37.1809 8.82812 37.2063 8.69727 37.2063 8.56055V8.10938C37.2063 7.96484 37.179 7.83203 37.1243 7.71094C37.0735 7.58594 36.9934 7.48633 36.8841 7.41211C36.7786 7.33398 36.6419 7.29492 36.4739 7.29492C36.3177 7.29492 36.1848 7.33398 36.0755 7.41211C35.9661 7.48633 35.8841 7.58594 35.8294 7.71094C35.7786 7.83203 35.7532 7.96484 35.7532 8.10938ZM38.7122 13.3594V12.9082C38.7122 12.5879 38.7825 12.2949 38.9231 12.0293C39.0677 11.7637 39.2766 11.5508 39.5501 11.3906C39.8274 11.2305 40.1673 11.1504 40.5696 11.1504C40.9759 11.1504 41.3157 11.2305 41.5891 11.3906C41.8626 11.5508 42.0696 11.7637 42.2102 12.0293C42.3509 12.2949 42.4212 12.5879 42.4212 12.9082V13.3594C42.4212 13.6797 42.3509 13.9727 42.2102 14.2383C42.0735 14.5039 41.8684 14.7168 41.595 14.877C41.3216 15.0371 40.9837 15.1172 40.5813 15.1172C40.1751 15.1172 39.8333 15.0371 39.5559 14.877C39.2786 14.7168 39.0677 14.5039 38.9231 14.2383C38.7825 13.9727 38.7122 13.6797 38.7122 13.3594ZM39.8372 12.9082V13.3594C39.8372 13.5 39.8684 13.6328 39.9309 13.7578C39.9934 13.8828 40.0794 13.9824 40.1887 14.0566C40.302 14.1309 40.4329 14.168 40.5813 14.168C40.7688 14.168 40.9153 14.1309 41.0208 14.0566C41.1262 13.9824 41.1985 13.8828 41.2376 13.7578C41.2805 13.6328 41.302 13.5 41.302 13.3594V12.9082C41.302 12.7676 41.2747 12.6367 41.22 12.5156C41.1653 12.3906 41.0833 12.291 40.9739 12.2168C40.8684 12.1387 40.7337 12.0996 40.5696 12.0996C40.4055 12.0996 40.2688 12.1387 40.1595 12.2168C40.054 12.291 39.9739 12.3906 39.9192 12.5156C39.8645 12.6367 39.8372 12.7676 39.8372 12.9082ZM40.9856 7.6875L36.8196 14.3555L35.9993 13.9219L40.1653 7.25391L40.9856 7.6875Z" fill="white"/>
<circle cx="4" cy="11" r="4" fill="#181E29"/>
<circle cx="51" cy="11" r="4" fill="#181E29"/>
<defs>
<linearGradient id="paint0_linear_170_101" x1="47" y1="11" x2="0" y2="11" gradientUnits="userSpaceOnUse">
<stop stop-color="#B947FF"/>
<stop offset="1" stop-color="#8A73FF"/>
</linearGradient>
</defs>
</svg>
